<svg xmlns="http://www.w3.org/2000/svg" xmlns:xlink="http://www.w3.org/1999/xlink" version="1.1" x="0px" y="0px" viewBox="0 0 50 62.5" enable-background="new 0 0 50 50" xml:space="preserve"><g><path fill="white" d="M6.01807,32.84082h1.47119c0.47607,2.72437,2.85303,4.80371,5.7124,4.80371c2.85864,0,5.23535-2.07935,5.71143-4.80371   h11.3125c0.47607,2.72437,2.85278,4.80371,5.71143,4.80371c2.85938,0,5.23633-2.07935,5.7124-4.80371h5.37061   c1.08203,0,1.96191-0.87988,1.96191-1.96191v-5.39746c0-2.75684-2.24316-5-5-5H38.0166   c-3.67997-3.51461-5.416-8.12598-10.79736-8.12598h-12.0498c-2.73633,0-5.25293,1.37451-6.73242,3.67725l-2.85547,4.44873H2.01807   c-0.55273,0-1,0.44775-1,1v6.35938C1.01807,30.59766,3.26123,32.84082,6.01807,32.84082z M13.20166,35.64453   c-2.09326,0-3.79614-1.69971-3.80347-3.79077c0.00024-0.00464,0.00269-0.0083,0.00269-0.01294s-0.00244-0.0083-0.00269-0.01294   c0.00732-2.09155,1.71021-3.79126,3.80347-3.79126c2.09766,0,3.80371,1.70654,3.80371,3.8042   C17.00537,33.93799,15.29932,35.64453,13.20166,35.64453z M35.93701,35.64453c-2.09766,0-3.80371-1.70654-3.80371-3.80371   c0-2.09766,1.70605-3.8042,3.80371-3.8042c2.09546,0,3.80054,1.70313,3.80396,3.79773c0,0.00232-0.00122,0.00427-0.00122,0.00647   s0.00122,0.00415,0.00122,0.00647C39.73755,33.94141,38.03247,35.64453,35.93701,35.64453z M35.34424,20.48145h-12.7168v-6.12598   h4.5918C31.25632,14.35547,32.57968,17.83864,35.34424,20.48145z M10.12061,17.11377   c1.10938-1.72705,2.99609-2.7583,5.04883-2.7583h5.45801v6.12598H7.95752L10.12061,17.11377z M3.01807,22.48145   c2.28569,0,42.50573,0,40.96387,0c1.6543,0,3,1.3457,3,3l0.03809,5.35938h-5.37061c-0.47607-2.72485-2.85278-4.8042-5.7124-4.8042   c-2.85864,0-5.23535,2.07935-5.71143,4.8042h-11.3125c-0.47607-2.72485-2.85278-4.8042-5.71143-4.8042   c-2.85962,0-5.23633,2.07935-5.7124,4.8042H6.01807c-1.6543,0-3-1.3457-3-3V22.48145z"/></g><text x="0" y="65" fill="#000000" font-size="5px" font-weight="bold" font-family="'Helvetica Neue', Helvetica, Arial-Unicode, Arial, Sans-serif">Created by Vectors Point</text><text x="0" y="70" fill="#000000" font-size="5px" font-weight="bold" font-family="'Helvetica Neue', Helvetica, Arial-Unicode, Arial, Sans-serif">from the Noun Project</text></svg>