<svg xmlns="http://www.w3.org/2000/svg" version="1.1" viewBox="-5.0 -10.0 110.0 135.0">
 <path fill="white" d="m80.574 39.637 12.117-11.219-8.1836-8.9297c-0.74219-0.8125-0.6875-2.0703 0.125-2.8125 0.8125-0.74219 2.0703-0.6875 2.8125 0.125l9.5195 10.391c0.73828 0.80859 0.6875 2.0625-0.11719 2.8047l-16.277 15.07v44.945c0 1.1055-0.89453 2-2 2h-36.758c-1.1055 0-2-0.89453-2-2s0.89453-2 2-2h34.758v-56.789c0-1.1055 0.89453-2 2-2 1.1055 0 2 0.89453 2 2v8.418zm-61.152-8.418c0-1.1055 0.89453-2 2-2s2 0.89453 2 2v56.789h4.9492c1.1055 0 2 0.89453 2 2 0 1.1055-0.89453 2-2 2h-6.9492c-1.1055 0-2-0.89453-2-2v-44.945l-16.27-15.059c-0.8125-0.74219-0.86719-2.0039-0.125-2.8125l13.738-14.996c0.28125-0.32031 0.66406-0.55469 1.1133-0.64453l17.188-3.4648c0.18359-0.054688 0.375-0.085938 0.57812-0.085938 1.1055 0 2 0.89453 2 2 0 3.4102 1.3789 6.4922 3.6055 8.7148 2.2305 2.2305 5.3164 3.6094 8.7266 3.6094 3.3672 0 6.4141-1.3438 8.6328-3.5156l0.089844-0.09375c2.2305-2.2305 3.6094-5.3164 3.6094-8.7227l0.046875-0.39063c0.21484-1.0781 1.2656-1.7773 2.3438-1.5625l10.953 2.207c1.0781 0.21484 1.7773 1.2656 1.5625 2.3438s-1.2656 1.7773-2.3438 1.5625l-8.7344-1.7578c-0.52344 3.5508-2.1875 6.7266-4.6094 9.1484l-0.11328 0.10547c-2.9492 2.8945-6.9883 4.6797-11.434 4.6797-4.5039 0-8.582-1.8281-11.539-4.7852-2.4219-2.4219-4.0898-5.6016-4.6172-9.1445l-14.52 2.9258-11.996 13.09 12.117 11.219v-8.418zm15.395 60.789c-1.1055 0-2-0.89453-2-2 0-1.1055 0.89453-2 2-2h0.55469c1.1055 0 2 0.89453 2 2 0 1.1055-0.89453 2-2 2zm47.301-80.461c1.0781 0.21484 1.7773 1.2656 1.5625 2.3438-0.21484 1.0781-1.2656 1.7773-2.3438 1.5625l-0.25781-0.050781c-1.0781-0.21484-1.7773-1.2656-1.5625-2.3438s1.2656-1.7773 2.3438-1.5625z"/>
</svg>