<svg xmlns="http://www.w3.org/2000/svg" version="1.1" viewBox="-5.0 -10.0 110.0 135.0">
 <g>
  <path d="m68.75 64.582c-2.3008 0-4.168-1.8633-4.168-4.1641s1.8672-4.168 4.168-4.168 4.168 1.8672 4.168 4.168-1.8672 4.1641-4.168 4.1641z"/>
  <path d="m62.5 70.832c2.3008 0 4.168-1.8633 4.168-4.1641s-1.8672-4.168-4.168-4.168-4.168 1.8672-4.168 4.168 1.8672 4.1641 4.168 4.1641z"/>
  <path d="m75 70.832c2.3008 0 4.168-1.8633 4.168-4.1641s-1.8672-4.168-4.168-4.168-4.168 1.8672-4.168 4.168 1.8672 4.1641 4.168 4.1641z"/>
  <path d="m64.582 72.918c0 2.3008 1.8672 4.1641 4.168 4.1641s4.168-1.8633 4.168-4.1641-1.8672-4.168-4.168-4.168-4.168 1.8672-4.168 4.168z"/>
  <path d="m33.332 55.207c1.7266 0 3.125 1.3984 3.125 3.125v5.2109h5.2109c1.7266 0 3.125 1.3984 3.125 3.125 0 1.7266-1.3984 3.125-3.125 3.125h-5.2109v5.207c0 1.7266-1.3984 3.125-3.125 3.125-1.7227 0-3.125-1.3984-3.125-3.125v-5.207h-5.207c-1.7266 0-3.125-1.3984-3.125-3.125 0-1.7266 1.3984-3.125 3.125-3.125h5.207v-5.2109c0-1.7266 1.4023-3.125 3.125-3.125z"/>
  <path d="m36.457 12.5c0-1.7266-1.3984-3.125-3.125-3.125-1.7266 0-3.125 1.3984-3.125 3.125v8.332c0 6.3281 5.1328 11.461 11.461 11.461 2.875 0 5.207 2.332 5.207 5.207v5.207h-14.219c-12.859 0-23.281 10.426-23.281 23.281 0 15.098 14.145 26.203 28.809 22.617l6.5195-1.5938c3.4805-0.85156 7.1133-0.85156 10.594 0l6.5195 1.5938c14.664 3.5859 28.809-7.5195 28.809-22.617 0-12.855-10.422-23.281-23.281-23.281h-14.219v-5.207c0-6.3281-5.1289-11.457-11.457-11.457-2.8789 0-5.2109-2.332-5.2109-5.2109zm-3.8008 36.457c-9.4062 0-17.031 7.625-17.031 17.031 0 11.043 10.348 19.168 21.074 16.547l6.5195-1.5938c4.457-1.0898 9.1055-1.0898 13.562 0l6.5195 1.5938c10.727 2.6211 21.074-5.5039 21.074-16.547 0-9.4062-7.625-17.031-17.031-17.031z" fill-rule="evenodd"/>
 </g>
<text x="0.0" y="117.5" font-size="5.0" font-weight="bold" font-family="Arbeit Regular, Helvetica, Arial-Unicode, Arial, Sans-serif" fill="#000000">Created by Fredrik Rosengren</text><text x="0.0" y="122.5" font-size="5.0" font-weight="bold" font-family="Arbeit Regular, Helvetica, Arial-Unicode, Arial, Sans-serif" fill="#000000">from Noun Project</text></svg>