<svg xmlns="http://www.w3.org/2000/svg" xmlns:xlink="http://www.w3.org/1999/xlink" xmlns:xodm="http://www.corel.com/coreldraw/odm/2003" xml:space="preserve" version="1.1" style="shape-rendering:geometricPrecision;text-rendering:geometricPrecision;image-rendering:optimizeQuality;" viewBox="0 0 846.66 1058.325" x="0px" y="0px" fill-rule="evenodd" clip-rule="evenodd"><defs><style type="text/css">
   
    .fil0 {fill:black;fill-rule:nonzero}
   
  </style></defs><g><path class="fil0" d="M157.61 68.85c-1.14,-4.21 -3.49,-7.69 -6.56,-10.05l-0.42 -0.33c-3,-2.19 -6.83,-3.44 -11.05,-3.44l-92.61 0c-9.35,0 -16.94,-7.59 -16.94,-16.94 0,-9.35 7.59,-16.94 16.94,-16.94l92.61 0c11.63,0 22.49,3.76 31.34,10.33l0.63 0.46c8.94,6.86 15.63,16.61 18.72,28.17l59.08 221.89 37.01 0 0.01 -137.59c0,-9.31 7.56,-16.87 16.87,-16.87l211.91 -0.07c9.35,0 16.94,7.59 16.94,16.94l0 34.59 167.54 0c9.35,0 16.94,7.59 16.94,16.94l0 86.06 35.32 0c10.71,0 20.82,2.77 29.94,8.11 8.76,5.12 16.36,12.53 22.43,22.02 5.89,10.09 9.58,18.38 11.41,30.06 1.65,10.52 1.17,21.42 -1.52,32.28l-62.3 202.73c-3.86,15.45 -11.78,28.47 -22.27,37.73 -11.07,9.82 -24.93,15.4 -39.96,15.4l-370.49 0c-7.95,0 -15.27,3.6 -20.63,9.38 -5.64,6.09 -9.15,14.62 -9.15,24.1 0,9.48 3.51,18.03 9.15,24.12 5.1,5.84 12.88,9.38 20.63,9.38l48.14 0 316.74 0c14.56,0 34.83,9.35 45.12,19.4 11.72,11.45 18.98,27.26 18.98,44.69 0,17.43 -7.26,33.25 -18.97,44.68 -11.59,11.31 -27.55,18.33 -45.13,18.33 -17.58,0 -33.54,-7.02 -45.13,-18.33 -11.71,-11.43 -18.97,-27.25 -18.97,-44.68 0,-10.93 2.86,-21.23 7.88,-30.21l-204.03 0c4.85,9.02 7.61,19.31 7.61,30.21 0,17.62 -7.19,33.62 -18.79,45.25 -12.06,12.06 -28.24,18.85 -45.31,18.85 -17.63,0 -33.65,-7.19 -45.26,-18.78 -11.65,-11.67 -18.84,-27.69 -18.84,-45.32 0,-11.14 2.85,-21.63 7.87,-30.76 -13.98,-1.9 -26.58,-8.68 -36.26,-18.68 -12.48,-12.36 -19.31,-30.72 -19.31,-48.15 0,-18.25 7,-34.94 18.29,-47.12 7.69,-8.3 17.36,-14.51 28.2,-17.74 -3.97,-6.54 -7.04,-13.93 -9.02,-21.98 -45.11,-169.38 -90.22,-338.74 -135.33,-508.12zm162.49 213.15l178.11 0 0 -120.65 -178.1 0 -0.01 120.65zm211.99 0l150.6 0 0 -69.12 -150.6 0 0 69.12zm173.48 458.93c-5.47,-5.35 -13.1,-8.67 -21.56,-8.67 -8.46,0 -16.09,3.32 -21.56,8.67 -5.34,5.21 -8.66,12.47 -8.66,20.47 0,8 3.32,15.25 8.65,20.46 5.48,5.35 13.11,8.67 21.57,8.67 8.46,0 16.09,-3.32 21.57,-8.67 5.33,-5.21 8.65,-12.46 8.65,-20.46 0,-8 -3.32,-15.26 -8.66,-20.47zm-337.91 -9.74c-8.28,0 -15.88,2.96 -21.76,8.84 -5.46,5.46 -8.85,13.02 -8.85,21.37 0,8.37 3.38,15.95 8.81,21.41 5.46,5.43 13.04,8.81 21.41,8.81 8.39,0 15.95,-3.37 21.37,-8.79 5.48,-5.48 8.85,-13.04 8.85,-21.43 0,-8.38 -3.37,-15.94 -8.82,-21.39 -5.36,-5.36 -12.77,-8.71 -21.01,-8.82zm384.23 -415.31l-493.52 0 67.39 253.01c2.14,8.69 6.37,15.85 11.86,20.69 4.82,4.32 10.83,6.79 17.29,6.87l4.33 0 330.38 0c6.54,0 12.65,-2.5 17.6,-6.86 5.5,-4.81 9.71,-11.97 11.87,-20.7l62.29 -202.7c1.58,-6.5 1.88,-12.87 0.95,-18.84 -0.89,-5.76 -3.21,-12.14 -6.51,-16.96 -3.21,-5.02 -6.97,-8.8 -11.05,-11.18 -3.74,-2.19 -8.09,-3.33 -12.88,-3.33z"/></g><text x="0" y="861.66" fill="#000000" font-size="5px" font-weight="bold" font-family="'Helvetica Neue', Helvetica, Arial-Unicode, Arial, Sans-serif">Created by Kartika Sholehatin</text><text x="0" y="866.66" fill="#000000" font-size="5px" font-weight="bold" font-family="'Helvetica Neue', Helvetica, Arial-Unicode, Arial, Sans-serif">from the Noun Project</text></svg>