<svg xmlns="http://www.w3.org/2000/svg" version="1.1" viewBox="-5.0 -10.0 110.0 135.0">
 <path fill="white" d="m67.52 6.2578c-0.55859-0.054687-1.0977 0.19531-1.4219 0.65625l-18.582 26.465-19.242-23c-0.26563-0.31641-0.64844-0.51562-1.0625-0.55078-0.41406-0.035156-0.82422 0.097656-1.1445 0.36328l-0.25391 0.21094c-5.9219 4.957-6.7148 13.828-1.7539 19.754l13.996 16.699-6.9531 9.9062c-7.0703-1.1562-14.27 1.4844-18.43 7.4062-5.9531 8.4805-3.9023 20.223 4.5781 26.176 8.4766 5.9531 20.223 3.8945 26.176-4.582 4.1367-5.918 4.1602-13.574 0.67969-19.82l4.5195-6.4414 6.5625 7.8477c-2.9336 6.5117-2.2617 14.133 2.3594 19.68 6.6484 7.9414 18.523 8.9961 26.469 2.3477s8.9961-18.523 2.3477-26.469c-4.6484-5.5508-12.047-7.5664-18.992-5.8164l-9.2695-11.082 13.871-19.754c4.4375-6.3203 2.9102-15.094-3.4102-19.531l-0.28125-0.1875c-0.22656-0.15625-0.48828-0.25391-0.76172-0.27734zm-0.046875 4.1445c3.9922 3.6445 5.1328 9.5078 1.9414 14.051l-28.242 40.23c-0.37109 0.51953-0.38281 1.2148-0.039063 1.75 3.4961 5.3555 3.3906 12.289-0.26562 17.531-4.9844 7.0977-14.727 8.8047-21.82 3.8203-7.0977-4.9805-8.8008-14.723-3.8203-21.816 3.6875-5.2461 10.176-7.7266 16.414-6.25 0.62109 0.14453 1.2656-0.10156 1.6328-0.62109l0.38672-0.53906zm-40.273 3.5742 18.457 22.051-5.75 8.1914-13.453-16.074c-3.5664-4.2539-2.918-10.199 0.74609-14.168zm20.898 29.062c-1.7383 0-3.1797 1.4375-3.1797 3.1758 0 1.7383 1.4414 3.1797 3.1797 3.1797 1.7383 0 3.1797-1.4414 3.1797-3.1797 0-1.7383-1.4414-3.1758-3.1797-3.1758zm8.1406 5.625 8.7383 10.434 0.41797 0.50391c0.41016 0.48828 1.0781 0.67578 1.6836 0.47656 6.0898-1.9922 12.773-0.078125 16.891 4.8359 5.5664 6.6484 4.6875 16.5-1.9609 22.062-6.6484 5.5664-16.5 4.6992-22.066-1.9492-4.0938-4.9141-4.7812-11.816-1.75-17.449 0.29688-0.5625 0.22266-1.2539-0.19141-1.7383l-7.5117-8.9883zm-27.75 18.133c-0.5-0.007813-0.99609 0.03125-1.4883 0.11719-1.957 0.33984-3.7852 1.4297-5.0078 3.1758-2.4531 3.4883-1.5977 8.3516 1.8906 10.805 3.4922 2.4492 8.3555 1.5977 10.805-1.8945 2.4531-3.4883 1.5977-8.3516-1.8945-10.801-1.3086-0.92188-2.8086-1.375-4.3047-1.4023zm43.078 0.027344c-1.7422 0.011719-3.4883 0.60938-4.918 1.8086-3.2695 2.7344-3.7109 7.6484-0.97266 10.918s7.6641 3.707 10.934 0.96875c3.2734-2.7344 3.707-7.6523 0.96875-10.922-1.3672-1.6328-3.2852-2.5664-5.2656-2.7422-0.25-0.023438-0.49609-0.03125-0.74609-0.03125zm-43.145 3.082c0.88672 0.015625 1.7852 0.29297 2.5742 0.84766 2.1094 1.4805 2.6133 4.3398 1.1328 6.4492-1.4805 2.1094-4.3359 2.6133-6.4453 1.1328-2.1094-1.4805-2.6172-4.3398-1.1367-6.4492 0.92578-1.3164 2.3906-2.0078 3.875-1.9805zm43.168 0.023438c1.332-0.011719 2.6523 0.55469 3.5859 1.668 1.6523 1.9766 1.3984 4.875-0.57422 6.5273-1.9766 1.6523-4.875 1.3906-6.5273-0.58203-1.6562-1.9766-1.3945-4.8672 0.58203-6.5195 0.86328-0.72266 1.9023-1.082 2.9336-1.0938z"/>
</svg>